<?xml version="1.0" encoding="UTF-8"?>
<svg version="1.1" xmlns="http://www.w3.org/2000/svg" width="200" height="200">
<path d="M0 0 C66 0 132 0 200 0 C200 66 200 132 200 200 C134 200 68 200 0 200 C0 134 0 68 0 0 Z " fill="#2E5BDC" transform="translate(0,0)"/>
<path d="M0 0 C14.19 0 28.38 0 43 0 C43 16.83 43 33.66 43 51 C46.96 51.33 50.92 51.66 55 52 C66.4008496 55.69791867 74.96823367 63.3058024 80.80859375 73.60546875 C86.15602285 84.35292461 86.23939999 95.62911016 83.02734375 107.0859375 C79.65072576 116.66372084 73.97004845 122.84132619 66 129 C52 135 52 135 0 135 C0 90.45 0 45.9 0 0 Z " fill="#2F5CDC" transform="translate(64,32)"/>
<path d="M0 0 C14.19 0 28.38 0 43 0 C43 16.83 43 33.66 43 51 C46.96 51.33 50.92 51.66 55 52 C66.4008496 55.69791867 74.96823367 63.3058024 80.80859375 73.60546875 C86.15602285 84.35292461 86.23939999 95.62911016 83.02734375 107.0859375 C79.65072576 116.66372084 73.97004845 122.84132619 66 129 C52 135 52 135 0 135 C0 90.45 0 45.9 0 0 Z M13.6875 69.5625 C13.130625 70.366875 12.57375 71.17125 12 72 C10.948125 73.4540625 10.948125 73.4540625 9.875 74.9375 C6.35665566 80.68412909 5.63658814 85.79427848 5.6875 92.375 C5.69313965 93.13232422 5.6987793 93.88964844 5.70458984 94.66992188 C5.92519144 104.77828034 9.96919496 112.49479887 16.78125 119.94921875 C24.77011526 127.49607712 33.39319404 130.78967569 44.35107422 130.81811523 C52.88111449 130.38504579 59.82653023 126.32532229 67 122 C67 121.34 67 120.68 67 120 C67.66 120 68.32 120 69 120 C77.06969211 111.74585778 80.45393455 100.59079123 80.34375 89.296875 C79.4494291 80.71952455 75.0764464 72.11750347 69 66 C51.15765765 51.91225127 29.29914615 52.26310832 13.6875 69.5625 Z " fill="#F0F3FC" transform="translate(64,32)"/>
<path d="M0 0 C10.56 0 21.12 0 32 0 C32 15.18 32 30.36 32 46 C28.04 46.99 24.08 47.98 20 49 C13.4889715 52.29381442 9.02511468 55.49697017 4.47265625 61.16796875 C3 63 3 63 0 66 C0 44.22 0 22.44 0 0 Z " fill="#2E5BDC" transform="translate(70,38)"/>
<path d="M0 0 C5 5 10 10 15 15 C10.05 15 5.1 15 0 15 C0 10.05 0 5.1 0 0 Z " fill="#325EDC" transform="translate(70,147)"/>
</svg>
