<?xml version="1.0" encoding="UTF-8"?>
<svg version="1.1" xmlns="http://www.w3.org/2000/svg" width="200" height="200">
<path d="M0 0 C66 0 132 0 200 0 C200 66 200 132 200 200 C134 200 68 200 0 200 C0 134 0 68 0 0 Z " fill="#0D100F" transform="translate(0,0)"/>
<path d="M0 0 C6.6 0 13.2 0 20 0 C20 20.46 20 40.92 20 62 C15.38 62 10.76 62 6 62 C5.505 61.505 5.505 61.505 5 61 C5 58.69 5 56.38 5 54 C0.38 54 -4.24 54 -9 54 C-9.309375 55.134375 -9.61875 56.26875 -9.9375 57.4375 C-11 61 -11 61 -12 62 C-14.35313555 62.07271741 -16.70833668 62.08370868 -19.0625 62.0625 C-20.35285156 62.05347656 -21.64320312 62.04445312 -22.97265625 62.03515625 C-23.97167969 62.02355469 -24.97070312 62.01195312 -26 62 C-25.41367056 56.30050738 -23.28358138 51.6264029 -20.95703125 46.46484375 C-20.34791145 45.09218102 -20.34791145 45.09218102 -19.72648621 43.69178772 C-18.4282835 40.77076562 -17.12045371 37.85416683 -15.8125 34.9375 C-14.95185926 33.00352864 -14.09182723 31.06928627 -13.23242188 29.13476562 C-8.89566748 19.38823578 -4.50081808 9.67197077 0 0 Z " fill="#0AE047" transform="translate(118,69)"/>
<path d="M0 0 C4.43623112 2.44529686 7.09306705 5.31017658 9.11328125 9.953125 C10.16566304 13.75788995 9.967979 17.23108605 9.72265625 21.15625 C4.77265625 21.15625 -0.17734375 21.15625 -5.27734375 21.15625 C-5.93734375 18.84625 -6.59734375 16.53625 -7.27734375 14.15625 C-10.17352432 14.1937184 -10.17352432 14.1937184 -13.27734375 15.15625 C-15.26765362 17.76832114 -15.26765362 17.76832114 -16.58984375 21.03125 C-17.08097656 22.10117188 -17.57210937 23.17109375 -18.078125 24.2734375 C-19.98015669 28.8457482 -20.41265444 32.20711666 -20.40234375 37.15625 C-20.40492187 38.39375 -20.4075 39.63125 -20.41015625 40.90625 C-20.42725677 44.16855773 -20.42725677 44.16855773 -19.27734375 47.15625 C-14.57585146 47.59735359 -14.57585146 47.59735359 -10.40234375 45.84375 C-9.09188252 44.03839533 -9.09188252 44.03839533 -8.27734375 41.15625 C-9.59734375 40.82625 -10.91734375 40.49625 -12.27734375 40.15625 C-12.16224714 38.73874437 -12.03480717 37.32223831 -11.90234375 35.90625 C-11.83273438 35.11734375 -11.763125 34.3284375 -11.69140625 33.515625 C-11.27734375 31.15625 -11.27734375 31.15625 -9.27734375 27.15625 C-2.01734375 27.15625 5.24265625 27.15625 12.72265625 27.15625 C13.82164327 30.45321105 13.59390069 31.56119903 12.78515625 34.84375 C12.59050781 35.65199219 12.39585938 36.46023437 12.1953125 37.29296875 C11.96134766 38.21529297 11.96134766 38.21529297 11.72265625 39.15625 C9.24765625 39.65125 9.24765625 39.65125 6.72265625 40.15625 C6.48482422 41.11724609 6.48482422 41.11724609 6.2421875 42.09765625 C4.22732187 49.5671305 1.83659443 54.74135917 -4.33984375 59.53125 C-10.56503698 62.97497391 -17.30030628 62.87947949 -24.27734375 62.15625 C-28.77474826 60.56665013 -31.38649227 57.54737949 -33.71484375 53.46875 C-37.68643281 43.24875573 -36.37192488 29.10023274 -32.27734375 19.15625 C-28.41593368 10.47392797 -24.22110842 4.95460736 -15.96484375 0.28125 C-10.50053454 -1.38582739 -5.4600088 -2.02291921 0 0 Z " fill="#0ADE46" transform="translate(51.27734375,68.84375)"/>
<path d="M0 0 C21.02381262 -0.57856864 21.02381262 -0.57856864 26.8359375 4.65234375 C31.55016232 9.88668258 32.29225374 14.06952117 32.21875 21.015625 C31.56994296 29.86720677 28.27649738 37.08178423 21.8125 43.1875 C14.8359335 48.84577686 6.70613603 49.52807861 -2 50 C-1.33484375 50.39832031 -0.6696875 50.79664063 0.015625 51.20703125 C2 53 2 53 2.171875 55.26171875 C1.78125 57.5078125 1.390625 59.75390625 1 62 C-3.62 62 -8.24 62 -13 62 C-12.41528952 56.0915569 -11.57176013 50.38442476 -10.29296875 44.58984375 C-10.04296867 43.43398521 -10.04296867 43.43398521 -9.78791809 42.254776 C-9.43621038 40.63332945 -9.08231622 39.01235573 -8.72631836 37.3918457 C-8.19435829 34.96873986 -7.66983777 32.5441182 -7.14648438 30.11914062 C-4.95572464 20.02854367 -2.56810527 10.00105137 0 0 Z " fill="#0ADF46" transform="translate(153,69)"/>
<path d="M0 0 C4.07166495 2.90833211 7.01178079 6.03534238 8.625 10.875 C8.625 13.185 8.625 15.495 8.625 17.875 C4.005 17.875 -0.615 17.875 -5.375 17.875 C-6.035 16.225 -6.695 14.575 -7.375 12.875 C-9.025 13.205 -10.675 13.535 -12.375 13.875 C-12.49696641 19.48545508 -10.80338638 21.88223322 -7 26 C-6.20851563 26.80695313 -5.41703125 27.61390625 -4.6015625 28.4453125 C-0.11504533 33.34112598 1.05576514 36.6247853 1.0625 43.3125 C1.08183594 44.58996094 1.10117188 45.86742187 1.12109375 47.18359375 C0.39659166 52.57457389 -1.96456433 55.60216781 -5.9375 59.1875 C-11.67848093 63.16202526 -18.66541641 62.42256372 -25.375 61.875 C-29.19535467 60.65943261 -30.9635708 58.46471519 -33.25 55.1875 C-34.71981946 50.85969826 -34.58215938 47.4325063 -34.375 42.875 C-29.755 42.875 -25.135 42.875 -20.375 42.875 C-19.715 44.855 -19.055 46.835 -18.375 48.875 C-16.395 48.38 -16.395 48.38 -14.375 47.875 C-14.00880317 44.16456446 -13.97994832 42.42115051 -16.203125 39.34765625 C-17.00234375 38.55230469 -17.8015625 37.75695312 -18.625 36.9375 C-24.99157307 30.28062721 -28.82477963 24.49691602 -28.6484375 15.02734375 C-28.0554632 10.35978891 -26.12553422 6.4823087 -22.65625 3.296875 C-15.81436802 -1.74756341 -8.11412495 -2.70470832 0 0 Z " fill="#0AE047" transform="translate(93.375,69.125)"/>
<path d="M0 0 C1.79133978 -0.05391993 3.58313899 -0.09275571 5.375 -0.125 C6.37273437 -0.14820312 7.37046875 -0.17140625 8.3984375 -0.1953125 C11 0 11 0 13 2 C13.9222353 9.3299741 13.10996619 14.94352236 8.5625 20.875 C7 22 7 22 3 22 C3.144375 21.071875 3.28875 20.14375 3.4375 19.1875 C4.16364963 14.14594684 4.5687807 9.07370796 5 4 C4.175 3.525625 3.35 3.05125 2.5 2.5625 C1.675 2.046875 0.85 1.53125 0 1 C0 0.67 0 0.34 0 0 Z " fill="#0D1C12" transform="translate(157,82)"/>
<path d="M0 0 C0.33 0 0.66 0 1 0 C1.02720824 2.68756955 1.0469388 5.37485798 1.0625 8.0625 C1.07087891 8.81466797 1.07925781 9.56683594 1.08789062 10.34179688 C1.10808341 15.00633118 0.77595959 19.39923173 0 24 C-2.97 24 -5.94 24 -9 24 C-6.7183577 15.63397824 -3.51779922 7.90081767 0 0 Z " fill="#0D2915" transform="translate(124,86)"/>
<path d="M0 0 C0.33 0 0.66 0 1 0 C1.22354607 1.89409978 1.42819951 3.7904348 1.625 5.6875 C1.74101563 6.74324219 1.85703125 7.79898438 1.9765625 8.88671875 C2.0010326 12.13716346 1.40852563 14.10230796 0 17 C-0.66 16.67 -1.32 16.34 -2 16 C-1.34 10.72 -0.68 5.44 0 0 Z " fill="#0C451D" transform="translate(94,108)"/>
</svg>
